<?xml version="1.0" encoding="utf-8"?><svg xml:space="preserve" viewBox="0 0 100 100" y="0" x="0" xmlns="http://www.w3.org/2000/svg" id="圖層_1" version="1.1" width="200px" height="200px" xmlns:xlink="http://www.w3.org/1999/xlink" style="width:100%;height:100%;background-size:initial;background-repeat-y:initial;background-repeat-x:initial;background-position-y:initial;background-position-x:initial;background-origin:initial;background-color:initial;background-clip:initial;background-attachment:initial;animation-play-state:paused" ><g class="ldl-scale" style="transform-origin:50% 50%;transform:rotate(0deg) scale(0.8, 0.8);animation-play-state:paused" ><path fill="#333" d="M27.4 76H12.6V32.4c0-.6.2-1.2.6-1.6l4.9-5.8c1-1.2 2.9-1.2 3.9 0l4.9 5.8c.4.5.6 1 .6 1.6V76z" style="fill:rgb(254, 8, 8);animation-play-state:paused" ></path>
<path fill="#333" d="M47.4 76H32.6V32.4c0-.6.2-1.2.6-1.6l4.9-5.8c1-1.2 2.9-1.2 3.9 0l4.9 5.8c.4.5.6 1 .6 1.6V76z" style="fill:rgb(254, 8, 8);animation-play-state:paused" ></path>
<path fill="#333" d="M67.4 76H52.6V32.4c0-.6.2-1.2.6-1.6L58 25c1-1.2 2.9-1.2 3.9 0l4.9 5.8c.4.5.6 1 .6 1.6V76z" style="fill:rgb(254, 8, 8);animation-play-state:paused" ></path>
<path fill="#333" d="M87.4 76H72.6V32.4c0-.6.2-1.2.6-1.6L78 25c1-1.2 2.9-1.2 3.9 0l4.9 5.8c.4.5.6 1 .6 1.6V76z" style="fill:rgb(254, 8, 8);animation-play-state:paused" ></path>
<path d="M7.5 38.7h85v5.4h-85z" fill="#333" style="fill:rgb(254, 8, 8);animation-play-state:paused" ></path>
<path d="M7.5 60.2h85v5.4h-85z" fill="#333" style="fill:rgb(254, 8, 8);animation-play-state:paused" ></path>
<metadata xmlns:d="https://loading.io/stock/" style="animation-play-state:paused" ><d:name style="animation-play-state:paused" >fence</d:name>
<d:tags style="animation-play-state:paused" >train,rail,stable,farm,pasture,railroad crossing,fence,transportation</d:tags>
<d:license style="animation-play-state:paused" >by</d:license>
<d:slug style="animation-play-state:paused" >fl7s73</d:slug></metadata></g><!-- generated by https://loading.io/ --></svg>