<?xml version="1.0" encoding="utf-8"?><svg xml:space="preserve" viewBox="0 0 100 100" y="0" x="0" xmlns="http://www.w3.org/2000/svg" id="圖層_1" version="1.1" width="200px" height="200px" xmlns:xlink="http://www.w3.org/1999/xlink" style="width:100%;height:100%;background-size:initial;background-repeat-y:initial;background-repeat-x:initial;background-position-y:initial;background-position-x:initial;background-origin:initial;background-color:initial;background-clip:initial;background-attachment:initial;animation-play-state:paused" ><g class="ldl-scale" style="transform-origin:50% 50%;transform:rotate(0deg) scale(0.8, 0.8);animation-play-state:paused" ><circle fill="#333" r="40" cy="50" cx="50" style="fill:rgb(51, 51, 51);animation-play-state:paused" ></circle>
<path fill="#333" d="M43.225 74.956l-11.45-6.611a1.899 1.899 0 0 1-.695-2.595l23.1-40.011a1.899 1.899 0 0 1 2.595-.695l11.45 6.611a1.899 1.899 0 0 1 .695 2.595l-23.1 40.011a1.9 1.9 0 0 1-2.595.695z" style="fill:rgb(51, 51, 51);animation-play-state:paused" ></path>
<path fill="#fefefe" d="M68.801 30.659L57.35 24.048a3.04 3.04 0 0 0-2.314-.305 3.037 3.037 0 0 0-1.852 1.421l-1.828 3.165-.001.001v.001L45.8 37.952l-.001.001v.001l-5.555 9.622-2.777 4.81-5.555 9.622-1.828 3.166A3.053 3.053 0 0 0 31.2 69.34l11.451 6.611a3.034 3.034 0 0 0 2.315.305 3.037 3.037 0 0 0 1.852-1.421l23.101-40.011a3.055 3.055 0 0 0-1.118-4.165zm-.876 3.016L44.824 73.686a.747.747 0 0 1-1.023.274L32.35 67.349a.75.75 0 0 1-.274-1.024l1.253-2.17 2.294 1.325a1.153 1.153 0 0 0 1.571-.421 1.15 1.15 0 0 0-.421-1.571l-2.294-1.325 1.628-2.819 2.294 1.325a1.153 1.153 0 0 0 1.571-.421 1.15 1.15 0 0 0-.421-1.571l-2.295-1.325 1.628-2.819 4.927 2.844a1.153 1.153 0 0 0 1.571-.421 1.15 1.15 0 0 0-.421-1.571l-4.927-2.844 1.627-2.819 2.295 1.324a1.15 1.15 0 0 0 1.15-1.993l-2.295-1.324 1.628-2.819 2.294 1.325a1.153 1.153 0 0 0 1.571-.421 1.15 1.15 0 0 0-.421-1.571l-2.294-1.325 1.627-2.819 4.927 2.844a1.153 1.153 0 0 0 1.571-.421 1.15 1.15 0 0 0-.421-1.571l-4.927-2.844 1.628-2.819 2.294 1.325a1.153 1.153 0 0 0 1.571-.421 1.15 1.15 0 0 0-.421-1.571l-2.294-1.325 1.627-2.819 2.295 1.325a1.153 1.153 0 0 0 1.571-.421 1.15 1.15 0 0 0-.421-1.571l-2.295-1.325 1.253-2.17a.747.747 0 0 1 1.023-.274l11.451 6.611a.747.747 0 0 1 .277 1.023z" style="fill:rgb(254, 254, 254);animation-play-state:paused" ></path>
<metadata xmlns:d="https://loading.io/stock/" style="animation-play-state:paused" ><d:name style="animation-play-state:paused" >ruler</d:name>
<d:tags style="animation-play-state:paused" >ruler,scale,straight,stiff,cm,measure,dimension,estimate,meter,gauge,survey,stationery</d:tags>
<d:license style="animation-play-state:paused" >by</d:license>
<d:slug style="animation-play-state:paused" >l5xe0u</d:slug></metadata></g><!-- generated by https://loading.io/ --></svg>